<svg width="28" height="20" viewBox="0 0 28 20" fill="none" xmlns="http://www.w3.org/2000/svg">
<path d="M23.5598 1.65872C21.8599 0.892108 20.0378 0.325479 18.1324 0.00327775C18.1154 2.00896e-05 18.0979 0.00211944 18.0821 0.0092855C18.0664 0.0164516 18.0533 0.0283298 18.0446 0.0432751C17.8113 0.453248 17.5513 0.987658 17.3691 1.40985C15.3482 1.10791 13.2937 1.10791 11.2729 1.40985C11.0699 0.94195 10.841 0.485717 10.5873 0.0432751C10.5787 0.0281458 10.5657 0.0159989 10.5501 0.00845533C10.5344 0.00091179 10.5168 -0.00166968 10.4996 0.00105557C8.59525 0.323257 6.77315 0.889886 5.07215 1.65761C5.05752 1.66375 5.04511 1.67422 5.0366 1.68761C1.57905 6.77061 0.63133 11.7281 1.09685 16.6233C1.09815 16.6353 1.10187 16.6469 1.10779 16.6574C1.11371 16.6679 1.12171 16.6771 1.1313 16.6844C3.14938 18.1537 5.40028 19.2729 7.78975 19.9953C7.80641 20.0004 7.82422 20.0004 7.84087 19.9953C7.85752 19.9901 7.87223 19.9801 7.88308 19.9664C8.39726 19.2788 8.8529 18.5492 9.24521 17.7854C9.25065 17.775 9.25379 17.7635 9.25441 17.7517C9.25503 17.74 9.25311 17.7282 9.24879 17.7173C9.24448 17.7063 9.23785 17.6964 9.22937 17.6882C9.2209 17.6801 9.21076 17.6738 9.19966 17.6699C8.48193 17.3996 7.78651 17.0734 7.11979 16.6944C7.10781 16.6876 7.09772 16.6779 7.09041 16.6662C7.08311 16.6545 7.07882 16.6411 7.07794 16.6274C7.07706 16.6136 7.07961 16.5998 7.08537 16.5873C7.09112 16.5747 7.09989 16.5638 7.1109 16.5555C7.2509 16.4522 7.39089 16.3444 7.52421 16.2367C7.53621 16.227 7.55067 16.2208 7.56597 16.2188C7.58127 16.2169 7.59681 16.2192 7.61087 16.2255C11.9739 18.1854 16.6992 18.1854 21.0111 16.2255C21.0252 16.2188 21.0409 16.2162 21.0564 16.218C21.0719 16.2197 21.0867 16.2258 21.0989 16.2355C21.2322 16.3444 21.3711 16.4522 21.5122 16.5555C21.5233 16.5637 21.5322 16.5744 21.5382 16.5869C21.5441 16.5993 21.5469 16.613 21.5462 16.6268C21.5455 16.6405 21.5415 16.6539 21.5344 16.6657C21.5273 16.6775 21.5174 16.6874 21.5055 16.6944C20.8411 17.0766 20.15 17.3999 19.4245 17.6688C19.4134 17.6728 19.4032 17.6792 19.3948 17.6875C19.3863 17.6958 19.3797 17.7058 19.3754 17.7168C19.371 17.7278 19.3691 17.7397 19.3698 17.7515C19.3704 17.7633 19.3735 17.7749 19.379 17.7854C19.779 18.5487 20.2367 19.2753 20.74 19.9653C20.7505 19.9795 20.7651 19.99 20.7818 19.9956C20.7985 20.0012 20.8165 20.0015 20.8333 19.9964C23.2269 19.2761 25.4815 18.1563 27.5018 16.6844C27.5116 16.6775 27.5199 16.6686 27.526 16.6582C27.5322 16.6479 27.536 16.6364 27.5373 16.6244C28.0929 10.9648 26.6063 6.04732 23.5943 1.68983C23.5869 1.67567 23.5747 1.66463 23.5598 1.65872ZM9.89739 13.6424C8.58414 13.6424 7.50088 12.4547 7.50088 10.9981C7.50088 9.54043 8.56303 8.35384 9.89739 8.35384C11.2417 8.35384 12.315 9.55043 12.2939 10.9981C12.2939 12.4558 11.2317 13.6424 9.89739 13.6424ZM18.7579 13.6424C17.4436 13.6424 16.3614 12.4547 16.3614 10.9981C16.3614 9.54043 17.4224 8.35384 18.7579 8.35384C20.1023 8.35384 21.1755 9.55043 21.1544 10.9981C21.1544 12.4558 20.1034 13.6424 18.7579 13.6424Z" fill="white"/>
</svg>
