<svg width="21" height="21" viewBox="0 0 21 21" fill="none" xmlns="http://www.w3.org/2000/svg">
<path fill-rule="evenodd" clip-rule="evenodd" d="M14.9423 1H6.56735C6.32074 1 6.12082 1.19992 6.12082 1.44653V2.6211H4.17505C3.65229 2.6211 3.22852 3.04487 3.22852 3.56763V19.5535C3.22852 20.0763 3.65229 20.5001 4.17505 20.5001H15.45C15.9728 20.5001 16.3965 20.0763 16.3965 19.5535V17.879H17.8423C18.0889 17.879 18.2889 17.679 18.2889 17.4324V4.29089H14.9423V1ZM15.3965 17.879H6.56735C6.32074 17.879 6.12082 17.679 6.12082 17.4324V3.6211H4.22852V19.5001H15.3965V17.879ZM17.6927 3.29089L15.9423 1.5606V3.29089H17.6927ZM8.45206 5.86938C8.17592 5.86938 7.95206 6.09323 7.95206 6.36938C7.95206 6.64552 8.17592 6.86938 8.45206 6.86938H15.8868C16.163 6.86938 16.3868 6.64552 16.3868 6.36938C16.3868 6.09323 16.163 5.86938 15.8868 5.86938H8.45206ZM8.45206 7.93477C8.17592 7.93477 7.95206 8.15862 7.95206 8.43477C7.95206 8.71091 8.17592 8.93477 8.45206 8.93477H15.8868C16.163 8.93477 16.3868 8.71091 16.3868 8.43477C16.3868 8.15862 16.163 7.93477 15.8868 7.93477H8.45206ZM7.95206 10.4999C7.95206 10.2238 8.17592 9.9999 8.45206 9.9999H15.8868C16.163 9.9999 16.3868 10.2238 16.3868 10.4999C16.3868 10.776 16.163 10.9999 15.8868 10.9999H8.45206C8.17592 10.9999 7.95206 10.776 7.95206 10.4999ZM8.45206 12.065C8.17592 12.065 7.95206 12.2889 7.95206 12.565C7.95206 12.8412 8.17592 13.065 8.45206 13.065H15.8868C16.163 13.065 16.3868 12.8412 16.3868 12.565C16.3868 12.2889 16.163 12.065 15.8868 12.065H8.45206Z" fill="white"/>
</svg>
