<svg width="26" height="20" viewBox="0 0 26 20" fill="none" xmlns="http://www.w3.org/2000/svg">
<path d="M25.2535 2.37236C24.3488 2.77326 23.3769 3.04414 22.3552 3.16658C23.4094 2.53575 24.1981 1.5429 24.5742 0.373289C23.5837 0.961624 22.4996 1.37575 21.3692 1.59766C20.609 0.78596 19.602 0.247955 18.5047 0.0671694C17.4074 -0.113617 16.2811 0.0729309 15.3007 0.59785C14.3203 1.12277 13.5406 1.95669 13.0826 2.97014C12.6247 3.98359 12.5142 5.11988 12.7683 6.20257C10.7613 6.1018 8.79788 5.58015 7.00553 4.67147C5.21318 3.76279 3.63193 2.48739 2.3644 0.928046C1.93099 1.67567 1.68179 2.54248 1.68179 3.46563C1.6813 4.29667 1.88595 5.11499 2.27758 5.84798C2.66921 6.58096 3.23571 7.20594 3.92682 7.66748C3.12532 7.64198 2.34151 7.4254 1.64061 7.03579V7.1008C1.64053 8.26638 2.04371 9.39609 2.78175 10.2982C3.51978 11.2004 4.54721 11.8194 5.68969 12.0503C4.94617 12.2515 4.16664 12.2811 3.40998 12.137C3.73233 13.1399 4.36022 14.0169 5.20576 14.6452C6.0513 15.2735 7.07216 15.6217 8.12542 15.641C6.33745 17.0446 4.12931 17.806 1.85623 17.8026C1.45358 17.8027 1.05127 17.7792 0.651367 17.7322C2.95868 19.2157 5.64455 20.003 8.38763 20C17.6733 20 22.7496 12.3092 22.7496 5.63915C22.7496 5.42245 22.7441 5.20358 22.7344 4.98687C23.7218 4.27281 24.5741 3.38858 25.2514 2.37562L25.2535 2.37236V2.37236Z" fill="white"/>
</svg>
