<svg width="346" height="320" viewBox="0 0 346 320" fill="none" xmlns="http://www.w3.org/2000/svg">
<circle cx="15.206" cy="15.206" r="13.206" transform="matrix(0.878817 0.477159 0.477159 -0.878817 88.3576 26.7264)" stroke="black" stroke-width="4"/>
<path d="M243 320L220.122 316.849L234.29 298.612L243 320ZM227.353 310.355C200.221 282.71 177.091 220.125 196.568 132.649L200.473 133.519C181.21 220.032 204.257 281.112 230.208 307.553L227.353 310.355ZM196.568 132.649C199.438 119.764 202.65 109.83 206.023 102.484C209.377 95.1814 212.977 90.2441 216.733 87.5933C218.636 86.2502 220.622 85.4653 222.649 85.3118C224.685 85.1577 226.63 85.6513 228.418 86.6565C231.926 88.6286 234.834 92.559 237.1 97.6091C241.659 107.769 244.095 123.521 242.928 141.543C241.758 159.606 236.96 180.114 226.881 199.826L223.319 198.004C233.125 178.826 237.798 158.859 238.936 141.285C240.077 123.67 237.658 108.623 233.451 99.2465C231.334 94.5282 228.881 91.5057 226.458 90.1433C225.28 89.4812 224.116 89.2122 222.951 89.3004C221.777 89.3893 220.47 89.8518 219.04 90.8614C216.128 92.916 212.895 97.1055 209.658 104.154C206.441 111.159 203.304 120.801 200.473 133.519L196.568 132.649ZM226.881 199.826C216.867 219.41 205.443 231.387 193.313 234.747C180.93 238.177 168.671 232.448 157.62 218.776C146.576 205.113 136.398 183.17 127.918 153.037C119.428 122.869 112.6 84.3499 108.346 37.4119L112.33 37.0508C116.568 83.8171 123.362 122.083 131.768 151.953C140.184 181.859 150.178 203.207 160.73 216.261C171.275 229.307 182.035 233.72 192.245 230.892C202.708 227.994 213.448 217.31 223.319 198.004L226.881 199.826Z" fill="black"/>
</svg>
