<svg width="300" height="300" viewBox="0 0 300 300" fill="none" xmlns="http://www.w3.org/2000/svg">
<path d="M37.5 93.7501V65.6251C37.5 63.1387 38.4877 60.7541 40.2459 58.9959C42.004 57.2378 44.3886 56.2501 46.875 56.2501H108.633C109.85 56.2458 111.056 56.4817 112.182 56.9442C113.309 57.4067 114.332 58.0867 115.195 58.9454L150 93.7501" stroke="black" stroke-width="8" stroke-linecap="round" stroke-linejoin="round"/>
<path d="M262.5 192.188H178.125V243.75H262.5V192.188Z" stroke="black" stroke-width="8" stroke-linecap="round" stroke-linejoin="round"/>
<path d="M131.953 243.75H46.1719C45.0331 243.75 43.9054 243.526 42.8533 243.09C41.8012 242.654 40.8452 242.015 40.0399 241.21C39.2347 240.405 38.5959 239.449 38.1601 238.397C37.7243 237.345 37.5 236.217 37.5 235.078V93.75H253.125C255.611 93.75 257.996 94.7377 259.754 96.4959C261.512 98.254 262.5 100.639 262.5 103.125V121.875" stroke="black" stroke-width="8" stroke-linecap="round" stroke-linejoin="round"/>
<path d="M196.875 192.188V178.125C196.875 171.909 199.344 165.948 203.74 161.552C208.135 157.157 214.096 154.688 220.312 154.688C226.529 154.688 232.49 157.157 236.885 161.552C241.281 165.948 243.75 171.909 243.75 178.125V192.188" stroke="black" stroke-width="8" stroke-linecap="round" stroke-linejoin="round"/>
</svg>
